<?xml version="1.0" standalone="no"?>
<!DOCTYPE svg PUBLIC "-//W3C//DTD SVG 20010904//EN"
 "http://www.w3.org/TR/2001/REC-SVG-20010904/DTD/svg10.dtd">
<svg version="1.0" xmlns="http://www.w3.org/2000/svg"
 width="1024.000000pt" height="1024.000000pt" viewBox="0 0 1024.000000 1024.000000"
 preserveAspectRatio="xMidYMid meet">
<metadata>
Created by potrace 1.14, written by Peter Selinger 2001-2017
</metadata>
<g transform="translate(0.000000,1024.000000) scale(0.100000,-0.100000)"
fill="#000000" stroke="none">
<path d="M0 5120 l0 -5120 5120 0 5120 0 0 5120 0 5120 -5120 0 -5120 0 0
-5120z m5570 3975 c1189 -144 2220 -774 2875 -1755 360 -539 569 -1111 652
-1780 13 -109 17 -218 17 -440 0 -316 -11 -454 -60 -720 -197 -1068 -812
-2003 -1714 -2605 -539 -360 -1111 -569 -1780 -652 -204 -25 -676 -25 -880 0
-953 118 -1779 523 -2430 1193 -619 637 -995 1433 -1107 2344 -25 204 -25 676
0 880 118 953 523 1779 1193 2430 682 662 1543 1045 2529 1124 115 9 576 -3
705 -19z"/>
<path d="M4857 8360 c-1062 -96 -1982 -669 -2526 -1575 -432 -719 -568 -1599
-372 -2416 297 -1242 1291 -2195 2541 -2438 448 -87 931 -78 1371 28 1242 297
2195 1291 2438 2541 87 448 78 931 -28 1371 -297 1242 -1291 2195 -2541 2438
-58 12 -157 28 -220 36 -138 19 -526 27 -663 15z m-864 -2005 c147 -38 266
-135 331 -267 168 -344 -97 -740 -479 -715 -193 12 -365 138 -436 317 -26 68
-36 213 -20 290 57 266 342 443 604 375z m2500 0 c147 -38 266 -135 331 -267
168 -344 -97 -740 -479 -715 -193 12 -365 138 -436 317 -26 68 -36 213 -20
290 57 266 342 443 604 375z m-2718 -2119 c43 -19 87 -53 155 -120 110 -108
165 -153 274 -226 468 -313 1117 -358 1631 -111 191 91 297 166 469 330 141
134 184 156 316 156 82 0 103 -4 151 -26 156 -74 248 -241 219 -401 -19 -101
-46 -145 -155 -253 -219 -217 -398 -347 -650 -470 -232 -114 -447 -180 -715
-222 -164 -25 -539 -25 -705 1 -263 41 -481 109 -721 226 -315 155 -678 448
-760 615 -26 54 -29 70 -29 160 0 87 3 107 26 155 47 100 137 178 238 207 73
20 186 11 256 -21z"/>
</g>
</svg>
