<svg width="34" height="34" viewBox="0 0 34 34" fill="none" xmlns="http://www.w3.org/2000/svg">
<path d="M17 0C7.6075 0 0 7.61175 0 17C0 24.5126 4.8705 30.8833 11.6237 33.1287C12.4737 33.2888 12.7854 32.7632 12.7854 32.3113C12.7854 31.9076 12.7712 30.838 12.7642 29.4213C8.03533 30.447 7.038 27.1405 7.038 27.1405C6.2645 25.1784 5.14675 24.6543 5.14675 24.6543C3.60683 23.6003 5.26575 23.6215 5.26575 23.6215C6.97283 23.7405 7.86958 25.3725 7.86958 25.3725C9.38542 27.9721 11.849 27.2213 12.8208 26.7863C12.9738 25.687 13.4116 24.9376 13.8975 24.5126C10.1221 24.0876 6.154 22.6256 6.154 16.1118C6.154 14.2559 6.81275 12.7401 7.90358 11.5501C7.71233 11.1208 7.13858 9.3925 8.05233 7.05075C8.05233 7.05075 9.47608 6.59458 12.7273 8.79325C14.0873 8.415 15.5323 8.228 16.9773 8.2195C18.4223 8.228 19.8673 8.415 21.2273 8.79325C24.4573 6.59458 25.8811 7.05075 25.8811 7.05075C26.7948 9.3925 26.2211 11.1208 26.0511 11.5501C27.1348 12.7401 27.7936 14.2559 27.7936 16.1118C27.7936 22.6426 23.8198 24.0805 20.0373 24.4984C20.6323 25.0084 21.1848 26.0511 21.1848 27.6434C21.1848 29.9186 21.1636 31.7461 21.1636 32.2986C21.1636 32.7448 21.4611 33.2761 22.3323 33.1061C29.1337 30.8763 34 24.5013 34 17C34 7.61175 26.3882 0 17 0Z" fill="white"/>
</svg>
