<svg width="34" height="34" viewBox="0 0 34 34" fill="none" xmlns="http://www.w3.org/2000/svg">
<path d="M17 0C12.3817 0 11.8051 0.02125 9.99175 0.102C8.18125 0.187 6.94875 0.47175 5.865 0.8925C4.74725 1.326 3.79808 1.90825 2.85317 2.85317C1.90825 3.79808 1.32458 4.74583 0.8925 5.865C0.47175 6.94875 0.185583 8.18125 0.102 9.99175C0.017 11.8051 0 12.3817 0 17C0 21.6183 0.02125 22.1949 0.102 24.0083C0.187 25.8173 0.47175 27.0513 0.8925 28.135C1.326 29.2513 1.90825 30.2019 2.85317 31.1468C3.79808 32.0903 4.74583 32.6754 5.865 33.1075C6.95017 33.5268 8.18267 33.8144 9.99175 33.898C11.8051 33.983 12.3817 34 17 34C21.6183 34 22.1949 33.9787 24.0083 33.898C25.8173 33.813 27.0513 33.5268 28.135 33.1075C29.2513 32.674 30.2019 32.0903 31.1468 31.1468C32.0903 30.2019 32.6754 29.2556 33.1075 28.135C33.5268 27.0513 33.8144 25.8173 33.898 24.0083C33.983 22.1949 34 21.6183 34 17C34 12.3817 33.9787 11.8051 33.898 9.99175C33.813 8.18267 33.5268 6.94733 33.1075 5.865C32.674 4.74725 32.0903 3.79808 31.1468 2.85317C30.2019 1.90825 29.2556 1.32458 28.135 0.8925C27.0513 0.47175 25.8173 0.185583 24.0083 0.102C22.1949 0.017 21.6183 0 17 0ZM17 3.06C21.5376 3.06 22.0787 3.08267 23.8708 3.16058C25.5283 3.2385 26.4279 3.51333 27.0257 3.7485C27.8219 4.05592 28.3857 4.42425 28.9836 5.01783C29.5772 5.61283 29.9455 6.17808 30.2529 6.97425C30.4852 7.57208 30.7629 8.47167 30.838 10.1292C30.9187 11.9227 30.9372 12.461 30.9372 17C30.9372 21.539 30.9159 22.0787 30.8323 23.8708C30.7459 25.5283 30.4697 26.4279 30.2359 27.0257C29.9186 27.8219 29.5573 28.3857 28.9623 28.9836C28.3687 29.5772 27.795 29.9455 27.0073 30.2529C26.4123 30.4852 25.4986 30.7629 23.8411 30.838C22.0362 30.9187 21.505 30.9372 16.9575 30.9372C12.4086 30.9372 11.8773 30.9159 10.0739 30.8323C8.415 30.7459 7.50125 30.4697 6.90625 30.2359C6.10017 29.9186 5.54625 29.5573 4.95267 28.9623C4.35625 28.3687 3.97517 27.795 3.67767 27.0073C3.44392 26.4123 3.16908 25.4986 3.08267 23.8411C3.01892 22.0561 2.99625 21.505 2.99625 16.9787C2.99625 12.4511 3.01892 11.8986 3.08267 10.0923C3.16908 8.43483 3.44392 7.5225 3.67767 6.9275C3.97517 6.12 4.35625 5.5675 4.95267 4.97108C5.54625 4.3775 6.10017 3.995 6.90625 3.69892C7.50125 3.46375 8.39517 3.1875 10.0527 3.1025C11.8589 3.03875 12.3902 3.0175 16.9362 3.0175L17 3.06ZM17 8.2705C12.1762 8.2705 8.2705 12.1805 8.2705 17C8.2705 21.8237 12.1805 25.7295 17 25.7295C21.8237 25.7295 25.7295 21.8195 25.7295 17C25.7295 12.1762 21.8195 8.2705 17 8.2705ZM17 22.6667C13.8692 22.6667 11.3333 20.1308 11.3333 17C11.3333 13.8692 13.8692 11.3333 17 11.3333C20.1308 11.3333 22.6667 13.8692 22.6667 17C22.6667 20.1308 20.1308 22.6667 17 22.6667ZM28.1152 7.92625C28.1152 9.0525 27.2 9.96625 26.0752 9.96625C24.9489 9.96625 24.0352 9.05108 24.0352 7.92625C24.0352 6.80142 24.9503 5.88767 26.0752 5.88767C27.1986 5.88625 28.1152 6.80142 28.1152 7.92625Z" fill="white"/>
</svg>
